<svg width="122.879" height="122.891" xmlns="http://www.w3.org/2000/svg" xml:space="preserve" enable-background="new 0 0 122.879 122.891" version="1.1">

 <g>
  <title>Layer 1</title>
  <g transform="rotate(-90, 61.4392, 61.4454)" id="svg_1">
   <path id="svg_2" d="m89.767,18.578c3.848,0 7.332,1.561 9.854,4.082c2.521,2.522 4.082,6.007 4.082,9.855s-1.561,7.332 -4.082,9.854c-2.522,2.522 -6.007,4.082 -9.854,4.082c-3.849,0 -7.333,-1.56 -9.854,-4.082c-2.522,-2.522 -4.082,-6.006 -4.082,-9.854s1.56,-7.333 4.082,-9.855c2.521,-2.522 6.005,-4.082 9.854,-4.082l0,0zm32.273,38.126l-65.337,65.337c-1.132,1.133 -2.969,1.133 -4.101,0l-51.753,-51.754c-1.132,-1.131 -1.132,-2.967 0,-4.1l65.337,-65.337c0.566,-0.566 1.308,-0.85 2.05,-0.85l0,0l50.051,0c1.602,0 2.9,1.298 2.9,2.9c0,0.048 -0.002,0.097 -0.004,0.145l1.694,51.517c0.026,0.83 -0.301,1.589 -0.845,2.134l0.008,0.008l0,0zm-67.388,59.185l62.406,-62.407l-1.568,-47.682l-46.052,0l-62.437,62.438l47.651,47.651l0,0zm41.592,-89.852c-1.657,-1.657 -3.948,-2.683 -6.478,-2.683c-2.53,0 -4.82,1.025 -6.478,2.683c-1.658,1.657 -2.684,3.948 -2.684,6.478s1.025,4.82 2.684,6.478c1.657,1.658 3.947,2.683 6.478,2.683c2.529,0 4.82,-1.025 6.478,-2.683s2.683,-3.948 2.683,-6.478s-1.026,-4.821 -2.683,-6.478l0,0z"/>
  </g>
 </g>
</svg>